<svg width="49" height="50" viewBox="0 0 49 50" fill="none" xmlns="http://www.w3.org/2000/svg">
<path d="M7.27309 20.2149L4.61736 22.4844C4.26157 22.7885 4.22345 23.2554 4.51571 23.6029L7.15873 26.752C3.33397 34.0058 6.10406 42.5517 13.7663 47.0799C21.4285 51.5972 31.7719 50.8045 38.354 45.1796C44.9361 39.5547 45.8764 30.7155 40.5777 24.1676C35.2917 17.6196 25.2787 15.2524 16.7905 18.5209L13.1055 16.2623C12.6989 16.0125 12.1525 16.0559 11.7967 16.3491L8.72167 18.977L6.94271 17.7499C6.14218 17.207 5.83722 16.284 6.16759 15.4587C6.49797 14.6334 7.41286 14.0796 8.44212 14.0796H21.8732C24.3257 14.0796 26.3079 12.3748 26.3206 10.279V10.1487L27.9725 10.7133C28.2648 10.8111 28.5824 10.7894 28.8493 10.6591C29.1161 10.5287 29.3067 10.3007 29.3449 10.0292L29.7642 7.59684L32.0133 6.07658C32.2547 5.9137 32.3945 5.66395 32.3945 5.39247C32.3945 5.121 32.2547 4.87124 32.0133 4.70836L29.7642 3.18811L29.3449 0.755708C29.294 0.495093 29.1161 0.267056 28.8493 0.12589C28.5824 -0.00441769 28.2521 -0.0261356 27.9725 0.0715948L25.3041 0.972886L22.6356 0.0607359C22.3434 -0.0369945 22.0257 -0.0152766 21.7589 0.115031C21.492 0.245338 21.3014 0.473375 21.2633 0.744849L20.8567 3.17725L18.6076 4.6975C18.3662 4.86038 18.2264 5.11014 18.2264 5.38161C18.2264 5.65309 18.3662 5.90284 18.6076 6.06573L20.8567 7.58598L21.276 10.0184C21.3268 10.279 21.5047 10.507 21.7716 10.6482C22.0384 10.7785 22.3688 10.8002 22.6484 10.7025L24.3002 10.1378V10.2681C24.3002 11.4083 23.2202 12.3313 21.8859 12.3313H8.44212C6.56151 12.3313 4.8715 13.3412 4.24886 14.8615C3.62623 16.3817 4.19804 18.0757 5.67203 19.0747L7.27309 20.2149ZM12.6227 18.0974L16.0916 20.2149C16.3966 20.3995 16.7905 20.4321 17.1209 20.2909C24.6942 17.1201 33.8304 19.0964 38.7352 24.9494C43.64 30.8132 42.8649 38.838 36.9054 43.9417C30.9459 49.0345 21.5429 49.6969 14.6812 45.5162C7.81948 41.3247 5.50684 33.5171 9.21723 27.0452C9.38242 26.7629 9.3443 26.4154 9.12829 26.1548L6.65045 23.1903L12.6227 18.0974ZM23.0804 8.71531L22.7881 7.03217C22.75 6.81499 22.6102 6.60867 22.4069 6.47837L20.844 5.42505L22.4069 4.37173C22.6102 4.23057 22.75 4.03511 22.7881 3.81793L23.0804 2.13479L24.9229 2.76461C25.1643 2.85148 25.4312 2.85148 25.6726 2.76461L27.5151 2.13479L27.8073 3.81793C27.8455 4.03511 27.9852 4.24143 28.1885 4.37173L29.7515 5.42505L28.1885 6.47837C27.9852 6.61953 27.8455 6.81499 27.8073 7.03217L27.5278 8.71531L25.6726 8.08549C25.4312 7.99862 25.1643 7.99862 24.9229 8.08549L23.0804 8.71531Z" fill="url(#paint0_linear)"/>
<defs>
<linearGradient id="paint0_linear" x1="24" y1="0" x2="24" y2="50" gradientUnits="userSpaceOnUse">
<stop stop-color="#147D6C"/>
<stop offset="1" stop-color="#1DF6F5"/>
</linearGradient>
</defs>
</svg>
