<svg width="45" height="45" viewBox="0 0 45 45" fill="none" xmlns="http://www.w3.org/2000/svg">
<path d="M29.5447 38.5596C33.2264 37.1092 36.377 34.6352 38.5951 31.4527C40.8133 28.2703 41.9985 24.5235 42 20.6894C41.9879 16.4091 40.5049 12.2533 37.783 8.87145C35.061 5.48963 31.2535 3.07243 26.9554 1.99764L27.5815 1.05443C27.6816 0.899834 27.7143 0.7133 27.6722 0.535592C27.6301 0.357884 27.5168 0.203452 27.357 0.106045C27.2434 0.0371079 27.112 0.000361279 26.9778 0H16.9605C16.7708 0 16.5888 0.0726677 16.4546 0.202018C16.3204 0.331368 16.245 0.506805 16.245 0.689734C16.2446 0.81887 16.2818 0.945527 16.3524 1.05529L16.9784 1.99764C13.9568 2.7525 11.1595 4.17656 8.80913 6.15657C6.45871 8.13657 4.61995 10.6179 3.43908 13.4033C3.43908 13.4033 2 16.1432 2 20.6894C2 25.2357 3.4194 27.9886 3.4194 27.9886C7.60606 37.8621 19.3021 42.5945 29.5447 38.5596ZM18.2592 1.37688H25.671L21.9656 6.98873L18.2592 1.37688ZM16.609 34.9575L21.9656 22.4914L27.3212 34.9575C23.8604 36.1654 20.0698 36.1654 16.609 34.9575ZM20.6428 21.9637L15.288 34.4264C11.9604 32.9145 9.28263 30.3332 7.71429 27.1255L20.6428 21.9637ZM20.0954 20.6894L7.16334 25.853C5.90677 22.5182 5.9112 18.863 7.17586 15.5311L20.0954 20.6894ZM7.72681 14.2568C9.29309 11.0538 11.9662 8.47547 15.288 6.96373L20.6401 19.4143L7.72681 14.2568ZM23.2893 21.9637L36.2168 27.1255C34.6485 30.3332 31.9707 32.9145 28.6431 34.4264L23.2893 21.9637ZM23.8366 20.6894L36.7535 15.5311C38.0191 18.8628 38.0235 22.5184 36.766 25.853L23.8366 20.6894ZM23.2884 19.4143L28.6413 6.96373C31.9645 8.47482 34.6389 11.0532 36.2061 14.2568L23.2884 19.4143ZM21.9674 18.8866L16.6126 6.43005C17.528 6.11003 18.4724 5.87305 19.4335 5.72221L21.361 8.64237C21.4114 8.71948 21.4771 8.78619 21.5545 8.83865C21.6318 8.89111 21.7191 8.92828 21.8115 8.948C21.9038 8.96772 21.9992 8.96961 22.0923 8.95356C22.1854 8.9375 22.2742 8.90382 22.3537 8.85446C22.4423 8.80018 22.5174 8.72777 22.5738 8.64237L24.5003 5.72221C25.4614 5.87305 26.4058 6.11003 27.3212 6.43005L21.9674 18.8866ZM3.36395 20.6894C3.37346 16.6377 4.803 12.7079 7.42062 9.53779C10.0382 6.36766 13.6903 4.1432 17.7843 3.22537L18.6044 4.46689C9.30273 6.25589 3.26915 14.9741 5.12501 23.9398C6.98088 32.9055 16.025 38.7234 25.3258 36.9335C34.6266 35.1437 40.662 26.4263 38.8052 17.4606C38.1412 14.2535 36.5066 11.3077 34.1076 8.99521C31.7087 6.68267 28.6529 5.10695 25.3258 4.46689L26.1469 3.22537C36.1551 5.45235 42.3944 15.081 40.0833 24.7296C37.7722 34.3781 27.7836 40.3917 17.7753 38.163C13.6771 37.2508 10.0206 35.0264 7.4029 31.8528C4.78516 28.6792 3.36074 24.744 3.36216 20.6894H3.36395Z" fill="url(#paint0_linear)"/>
<defs>
<linearGradient id="paint0_linear" x1="22" y1="0" x2="22" y2="40" gradientUnits="userSpaceOnUse">
<stop stop-color="#147D6C"/>
<stop offset="0.0001" stop-color="#147D6C"/>
<stop offset="1" stop-color="#1DF6F5"/>
</linearGradient>
</defs>
</svg>
