<svg width="19" height="17" viewBox="0 0 19 17" fill="none" xmlns="http://www.w3.org/2000/svg">
<path d="M11.8322 8.74576C11.8262 8.74899 11.8238 8.75209 11.8167 8.76622C11.811 8.77754 11.8078 8.78492 11.8068 8.78973C11.8062 8.79296 11.8062 8.7936 11.8072 8.79565C11.808 8.79712 11.8095 8.7987 11.8112 8.79976C11.815 8.8021 11.8182 8.8021 11.8219 8.79976C11.8255 8.79759 11.8266 8.7963 11.8309 8.78985C11.8329 8.78698 11.8351 8.7841 11.8359 8.78358C11.8374 8.7827 11.8377 8.7827 11.8392 8.78352C11.8473 8.78774 11.8472 8.78768 11.8507 8.78745C11.8565 8.78703 11.8602 8.78317 11.8602 8.77754C11.8602 8.77009 11.8403 8.74506 11.8344 8.74512C11.8339 8.74512 11.8329 8.74547 11.8322 8.74576Z" fill="#1EFFFF" fill-opacity="0.7"/>
<path d="M11.8746 8.79004C11.8744 8.79021 11.8727 8.79045 11.8711 8.79068C11.8642 8.79162 11.8596 8.79988 11.8631 8.80534C11.865 8.8085 11.8687 8.80991 11.8762 8.81038C11.8847 8.81096 11.885 8.81132 11.8837 8.81858C11.882 8.82814 11.8833 8.83441 11.8894 8.84625C11.8912 8.84971 11.893 8.85346 11.8935 8.8547C11.8942 8.85686 11.8942 8.85692 11.8928 8.85728C11.8919 8.85757 11.8873 8.85722 11.8823 8.85669C11.8722 8.85558 11.8663 8.85581 11.8631 8.85733C11.8619 8.85792 11.8582 8.86015 11.8549 8.86226C11.8517 8.86431 11.8485 8.86613 11.8479 8.86625C11.847 8.86642 11.8463 8.86542 11.8446 8.86079C11.841 8.85112 11.8382 8.84778 11.8328 8.84696C11.8297 8.84643 11.8277 8.84713 11.8249 8.84954C11.823 8.85124 11.8224 8.85235 11.8218 8.85505C11.8192 8.86701 11.8295 8.89538 11.8378 8.89913C11.8398 8.90007 11.8401 8.90007 11.8428 8.89896C11.847 8.8972 11.8529 8.89321 11.8633 8.8853L11.8724 8.87844L11.8873 8.88166C11.9053 8.88559 11.9155 8.88711 11.9196 8.88653C11.9218 8.88623 11.9231 8.88553 11.9247 8.88389C11.9297 8.87891 11.9286 8.87457 11.9136 8.84268L11.9064 8.8275L11.9118 8.81964C11.9248 8.80065 11.9248 8.79437 11.9119 8.79109C11.9094 8.7905 11.9036 8.79021 11.8919 8.79004C11.8827 8.78992 11.8751 8.78992 11.8746 8.79004Z" fill="#1EFFFF" fill-opacity="0.7"/>
<path d="M11.7158 8.80343C11.7112 8.80618 11.7042 8.81216 11.6887 8.82629C11.681 8.83332 11.6744 8.83907 11.6742 8.83907C11.6739 8.83907 11.6703 8.83737 11.666 8.83538C11.6428 8.824 11.6171 8.81703 11.5852 8.81345C11.5745 8.81228 11.5416 8.81246 11.5317 8.81374C11.4893 8.81955 11.4518 8.8335 11.4192 8.8556C11.3802 8.88204 11.3503 8.91792 11.3314 8.96112C11.3243 8.97718 11.3173 8.99998 11.316 9.01124C11.3149 9.01991 11.3144 9.07203 11.3153 9.0844C11.3164 9.09999 11.3176 9.10568 11.3249 9.12584C11.3361 9.15732 11.3443 9.17245 11.3633 9.19689C11.3874 9.22784 11.4163 9.25118 11.451 9.26765C11.4769 9.27996 11.5015 9.28688 11.5324 9.29051C11.545 9.29203 11.5734 9.29203 11.5864 9.29051C11.6356 9.28482 11.6785 9.26765 11.7156 9.23886C11.7264 9.23054 11.7435 9.21401 11.7521 9.20346C11.764 9.1891 11.7727 9.17585 11.7813 9.15914C11.7933 9.13598 11.8003 9.11652 11.8034 9.09858C11.8056 9.08569 11.806 9.07883 11.806 9.05186C11.806 9.02976 11.8058 9.02337 11.8048 9.0164C11.8022 8.9957 11.7981 8.98228 11.7845 8.94922L11.78 8.93843L11.7925 8.92589C11.8068 8.91147 11.8138 8.90367 11.816 8.89939L11.8177 8.89634L11.8163 8.89365C11.814 8.88913 11.8085 8.88122 11.8017 8.8726C11.7857 8.85208 11.7844 8.84909 11.79 8.84517C11.7935 8.84276 11.8046 8.83813 11.8108 8.83655C11.8216 8.83385 11.8352 8.83438 11.8488 8.83807C11.859 8.84089 11.861 8.84077 11.8649 8.83708C11.8726 8.83004 11.869 8.82189 11.8559 8.81621C11.8485 8.81304 11.8412 8.81163 11.8299 8.81134C11.8176 8.81099 11.8125 8.81158 11.8035 8.81462C11.7945 8.81767 11.788 8.82072 11.7768 8.82723C11.7715 8.83039 11.7667 8.83309 11.7661 8.83332C11.7655 8.83356 11.7617 8.83092 11.7553 8.82565C11.7392 8.81269 11.7259 8.80354 11.7208 8.80214C11.7191 8.80167 11.7184 8.80184 11.7158 8.80343ZM11.7266 8.83268C11.7304 8.8342 11.7369 8.83966 11.7508 8.85302C11.7736 8.87471 11.7894 8.89183 11.7894 8.89458C11.7894 8.89535 11.7883 8.89763 11.7868 8.89968C11.7837 8.9042 11.7711 8.91703 11.7692 8.91762C11.7681 8.91791 11.7671 8.91721 11.7635 8.91358C11.7611 8.91111 11.756 8.90537 11.7522 8.90091C11.7419 8.88855 11.725 8.87248 11.7105 8.86123C11.7036 8.85595 11.6981 8.85144 11.6981 8.85115C11.6981 8.85073 11.7018 8.84687 11.7063 8.84241C11.7174 8.83139 11.7201 8.8301 11.7266 8.83268ZM11.5718 8.83602C11.6051 8.83784 11.6285 8.8437 11.6577 8.85754C11.6817 8.86891 11.6999 8.88145 11.7185 8.89939C11.7481 8.92806 11.7675 8.96182 11.7781 9.00309C11.7828 9.02138 11.7829 9.02173 11.7829 9.04671C11.7828 9.06417 11.7825 9.07115 11.7817 9.07824C11.7765 9.12086 11.7627 9.15339 11.7365 9.18528C11.7285 9.19496 11.7104 9.21266 11.7012 9.21993C11.6746 9.2408 11.6445 9.25534 11.6113 9.26343C11.5935 9.26771 11.5784 9.26952 11.5602 9.26952C11.4685 9.26952 11.3857 9.21413 11.3519 9.13018C11.3419 9.10533 11.3371 9.07965 11.3371 9.05216C11.3371 9.03697 11.3377 9.02982 11.3401 9.01552C11.3496 8.95977 11.3813 8.91047 11.4296 8.87618C11.4416 8.86762 11.4601 8.85759 11.4757 8.85132C11.5069 8.83866 11.5357 8.83409 11.5718 8.83602Z" fill="#1EFFFF" fill-opacity="0.7"/>
<path d="M11.5512 8.87093C11.5454 8.87134 11.5294 8.87368 11.5237 8.87485C11.4901 8.88183 11.4552 8.89936 11.4339 8.91993C11.4259 8.92767 11.4238 8.93107 11.4248 8.93435C11.4257 8.93693 11.4293 8.94098 11.4321 8.94273C11.4365 8.94525 11.439 8.94414 11.452 8.93406C11.482 8.91055 11.5171 8.89631 11.5501 8.8942C11.555 8.89385 11.5601 8.89332 11.5614 8.89297C11.5648 8.89197 11.5694 8.88869 11.5708 8.88628C11.5754 8.87761 11.5655 8.86981 11.5512 8.87093Z" fill="#1EFFFF" fill-opacity="0.7"/>
<path d="M0 0.0107241C0 0.0150133 0.0243424 0.0622013 0.0543023 0.111531C0.0842624 0.163005 0.252787 0.454702 0.426928 0.761412C0.775214 1.37913 1.98484 3.5025 2.47169 4.35401C2.64396 4.65428 2.83308 4.98673 2.893 5.09397C2.95292 5.19906 3.07463 5.41138 3.16077 5.56585C3.24877 5.71809 3.6963 6.50525 4.15693 7.31386C4.61757 8.12247 5.08943 8.95254 5.2074 9.15842C5.32537 9.36435 5.5613 9.77827 5.72983 10.0743C6.42265 11.2925 6.61362 11.625 6.88139 12.0968C7.03683 12.3693 7.31211 12.854 7.49557 13.1757C7.67909 13.4953 7.88694 13.8599 7.95624 13.9843C8.02736 14.1087 8.19775 14.4068 8.33635 14.6492C8.47303 14.8915 8.76326 15.3999 8.97861 15.7795C9.19579 16.1613 9.37556 16.4723 9.38118 16.4723C9.38681 16.4723 9.56658 16.1613 9.78375 15.7795C9.99911 15.3999 10.2893 14.8915 10.426 14.6492C10.5646 14.4068 10.7406 14.098 10.8174 13.9629C10.8941 13.8277 11.102 13.4631 11.278 13.1542C11.4559 12.8433 11.7274 12.3693 11.881 12.0968C12.1488 11.6271 12.3341 11.3011 13.0325 10.0743C13.2011 9.77827 13.437 9.36435 13.555 9.15842C13.673 8.95254 14.1448 8.12247 14.6054 7.31386C15.0661 6.50525 15.5136 5.71809 15.6016 5.56585C15.6877 5.41138 15.8095 5.19906 15.8694 5.09397C15.9293 4.98673 16.1184 4.65428 16.2907 4.35401C16.4629 4.05373 16.8019 3.45961 17.0434 3.03493C17.2849 2.61026 17.5621 2.12338 17.6595 1.95179C17.7568 1.78236 17.9834 1.38341 18.1631 1.06813C18.5826 0.332449 18.7511 0.0364621 18.7586 0.0150133C18.7624 0.0064342 14.5436 0 9.38306 0C4.22247 0 0 0.00428926 0 0.0107241ZM18.1613 0.308854C18.1538 0.319581 17.7606 0.467575 16.5622 0.913696C16.2533 1.02737 15.8787 1.16893 15.7289 1.2247C15.5792 1.28046 15.2177 1.41344 14.9238 1.52283C14.6298 1.63222 14.2141 1.78664 13.9988 1.86815L13.6055 2.01614H9.23325H4.85912L4.55952 1.89603C4.39474 1.82954 4.22621 1.76305 4.18502 1.74803C4.14383 1.73302 4.01275 1.68155 3.89478 1.63436C3.68506 1.54856 3.30869 1.39843 2.32189 1.00807C1.37254 0.632727 0.848241 0.424677 0.702182 0.36462L0.552385 0.304563L9.3606 0.302423C14.2047 0.300278 18.165 0.304563 18.1613 0.308854Z" fill="#23A8A8"/>
</svg>
