<svg width="103" height="90" viewBox="0 0 103 90" fill="none" xmlns="http://www.w3.org/2000/svg">
<g clip-path="url(#clip0)">
<path d="M51.5163 52.0329C62.5594 52.0329 71.5441 43.0255 71.5441 31.9551C71.5441 20.8847 62.5594 11.8773 51.5163 11.8773C40.4733 11.8773 31.4885 20.8834 31.4885 31.9551C31.4885 43.0267 40.4733 52.0329 51.5163 52.0329ZM51.5163 14.387C61.1746 14.387 69.0309 22.2675 69.0309 31.9551C69.0309 41.6426 61.1746 49.5231 51.5163 49.5231C41.858 49.5231 34.0017 41.6413 34.0017 31.9551C34.0017 22.2688 41.858 14.387 51.5163 14.387Z" fill="url(#paint0_linear)"/>
<path d="M52.0064 38.508H66.0402L62.9628 30.0477H58.9693L55.9459 21.7405H47.0755L44.0521 30.0477H40.0586L36.9812 38.508H51.015H52.0064ZM62.4538 35.9982H54.6001L55.8516 32.5574H61.2023L62.4538 35.9982ZM48.8348 24.2502H54.1854L55.4357 27.6898H47.5844L48.8348 24.2502ZM40.5663 35.9982L41.8179 32.5574H47.1685L48.4201 35.9982H40.5663ZM48.983 30.1995H54.0358L51.5088 37.1452L48.983 30.1995Z" fill="url(#paint1_linear)"/>
<path d="M12.1927 72.9844C12.4387 73.3642 12.2821 73.6546 11.8347 73.6546H9.01585C8.72502 73.6546 8.5013 73.5429 8.3447 73.2971L3.5795 66.4191V73.0961C3.5795 73.4535 3.37815 73.6546 3.0202 73.6546H0.559296C0.201347 73.6546 0 73.4535 0 73.0961V58.5745C0 58.2171 0.201347 58.016 0.559296 58.016H3.0202C3.37815 58.016 3.5795 58.2171 3.5795 58.5745V64.8181L8.12098 58.3735C8.29996 58.1277 8.5013 58.016 8.79214 58.016H11.611C12.0584 58.016 12.2374 58.3065 11.9689 58.6862L7.1525 65.624L12.1927 72.9844ZM19.3293 62.1714C22.5956 62.1714 24.967 64.6959 24.967 68.0694C24.967 68.3598 24.9446 68.6279 24.9222 68.896C24.8775 69.2535 24.6538 69.4098 24.3182 69.4098H21.5888H16.8473C17.2538 70.7371 18.2977 71.2641 19.4635 71.2641C20.0899 71.2641 20.7163 71.0407 21.119 70.7056C21.3427 70.5269 21.5217 70.4152 21.8126 70.4152L23.9602 70.3928C24.3629 70.3928 24.5867 70.6609 24.4077 71.0184C23.5352 72.962 21.7007 73.9674 19.4188 73.9674C15.705 73.9674 13.3336 71.3982 13.3336 68.0694C13.3336 64.7406 15.7945 62.1714 19.3293 62.1714ZM16.8333 66.863H21.6264C21.2805 65.5918 20.2937 65.1427 19.3069 65.1427C18.0492 65.1427 17.1789 65.7489 16.8333 66.863ZM33.2893 62.9533C33.3788 62.6406 33.6025 62.4842 33.9157 62.4842H36.3319C36.7346 62.4842 36.9359 62.7076 36.8017 63.1097L31.9694 77.6759C31.8799 77.9887 31.6338 78.1228 31.3206 78.1228H28.9044C28.5017 78.1228 28.3004 77.8994 28.4346 77.4972L29.7769 73.4759L25.8395 63.1321C25.7053 62.7523 25.8842 62.4842 26.2869 62.4842H28.7031C29.0163 62.4842 29.2176 62.6406 29.3295 62.931L31.4548 68.8513L33.2893 62.9533ZM50.538 72.9844C50.7841 73.3642 50.6275 73.6546 50.1801 73.6546H47.3612C47.0704 73.6546 46.8466 73.5429 46.69 73.2971L41.9248 66.4191V73.0961C41.9248 73.4535 41.7235 73.6546 41.3655 73.6546H38.9046C38.5467 73.6546 38.3453 73.4535 38.3453 73.0961V58.5745C38.3453 58.2171 38.5467 58.016 38.9046 58.016H41.3655C41.7235 58.016 41.9248 58.2171 41.9248 58.5745V64.8181L46.4663 58.3735C46.6453 58.1277 46.8466 58.016 47.1375 58.016H49.9563C50.4038 58.016 50.5827 58.3065 50.3143 58.6862L45.4978 65.624L50.538 72.9844ZM56.8692 62.1714C59.3301 62.1714 61.5226 63.6012 61.5226 66.6172V73.0961C61.5226 73.4535 61.3212 73.6546 60.9633 73.6546H58.8156C58.4576 73.6546 58.2563 73.4535 58.2563 73.0961V72.777C57.6565 73.4781 56.7759 73.9674 55.3703 73.9674C53.4016 73.9674 51.679 72.8056 51.679 70.4822C51.679 68.1587 53.4016 66.997 55.3703 66.997C56.7759 66.997 57.6565 67.3931 58.2563 67.8489V66.8407C58.2563 65.746 57.8089 65.2545 56.8692 65.2545C56.1757 65.2545 55.7506 65.5225 55.5717 65.9023C55.4374 66.2151 55.3256 66.3938 54.99 66.3938H52.7976C52.4396 66.3938 52.2159 66.1928 52.2383 65.813C52.5291 63.4002 54.5873 62.1714 56.8692 62.1714V62.1714ZM56.556 71.5992C57.6522 71.5992 58.2563 71.1301 58.2563 70.4822C58.2563 69.7896 57.6522 69.3652 56.556 69.3652C55.5269 69.3652 55.0347 69.8343 55.0347 70.4822C55.0347 71.1301 55.5269 71.5992 56.556 71.5992ZM67.6301 70.5269H71.5228C71.8807 70.5269 72.0821 70.728 72.0821 71.0854V73.0961C72.0821 73.4535 71.8807 73.6546 71.5228 73.6546H63.6926C63.3347 73.6546 63.1334 73.4535 63.1334 73.0961V71.8003C63.1334 71.5322 63.2005 71.3312 63.3571 71.1077L67.3616 65.6119H63.9164C63.5584 65.6119 63.3571 65.4108 63.3571 65.0534V63.0427C63.3571 62.6853 63.5584 62.4842 63.9164 62.4842H71.2991C71.657 62.4842 71.8584 62.6853 71.8584 63.0427V64.3385C71.8584 64.6066 71.7913 64.8076 71.6347 65.031L67.6301 70.5269ZM74.4311 61.1437C74.0732 61.1437 73.8718 60.9427 73.8718 60.5852V58.5745C73.8718 58.2171 74.0732 58.016 74.4311 58.016H76.6683C77.0263 58.016 77.2276 58.2171 77.2276 58.5745V60.5852C77.2276 60.9427 77.0263 61.1437 76.6683 61.1437H74.4311ZM74.4311 73.6546C74.0732 73.6546 73.8718 73.4535 73.8718 73.0961V63.0427C73.8718 62.6853 74.0732 62.4842 74.4311 62.4842H76.6683C77.0263 62.4842 77.2276 62.6853 77.2276 63.0427V73.0961C77.2276 73.4535 77.0263 73.6546 76.6683 73.6546H74.4311ZM85.9526 62.1714C88.0332 62.1714 89.5321 63.78 89.5321 66.5726V73.0961C89.5321 73.4535 89.3308 73.6546 88.9728 73.6546H86.7357C86.3777 73.6546 86.1764 73.4535 86.1764 73.0961V66.863C86.1764 65.7459 85.5276 65.2544 84.6775 65.2544C83.6707 65.2544 83.0443 65.813 83.0443 67.1311V73.0961C83.0443 73.4535 82.843 73.6546 82.485 73.6546H80.2478C79.8899 73.6546 79.6885 73.4535 79.6885 73.0961V63.0427C79.6885 62.6853 79.8899 62.4842 80.2478 62.4842H82.485C82.843 62.4842 83.0443 62.6853 83.0443 63.0427V63.5045C83.57 62.7281 84.5224 62.1714 85.9526 62.1714ZM97.0715 73.9674C93.7828 73.9674 91.1429 71.3982 91.1429 68.0694C91.1429 64.7406 93.7828 62.1714 97.0715 62.1714C100.36 62.1714 103 64.7406 103 68.0694C103 71.3982 100.36 73.9674 97.0715 73.9674ZM97.0715 70.7056C98.5256 70.7056 99.6442 69.6556 99.6442 68.0694C99.6442 66.4832 98.5256 65.4332 97.0715 65.4332C95.6173 65.4332 94.4987 66.4832 94.4987 68.0694C94.4987 69.6556 95.6173 70.7056 97.0715 70.7056Z" fill="white"/>
</g>
<defs>
<linearGradient id="paint0_linear" x1="31.4885" y1="11.8773" x2="71.5441" y2="11.8773" gradientUnits="userSpaceOnUse">
<stop stop-color="#147D6C"/>
<stop offset="1" stop-color="#1EFFFF"/>
</linearGradient>
<linearGradient id="paint1_linear" x1="36.9812" y1="21.7405" x2="66.0402" y2="21.7405" gradientUnits="userSpaceOnUse">
<stop stop-color="#147D6C"/>
<stop offset="1" stop-color="#1EFFFF"/>
</linearGradient>
<clipPath id="clip0">
<rect width="103" height="90" fill="white"/>
</clipPath>
</defs>
</svg>
